<svg width="70" height="100" viewBox="0 0 70 100" fill="none" xmlns="http://www.w3.org/2000/svg">
<path d="M66.3926 100H2.72507C1.23867 100 0 98.7593 0 97.2704V7.6923C0 6.20346 1.23867 4.96277 2.72507 4.96277H66.3926C67.879 4.96277 69.1176 6.20346 69.1176 7.6923V97.2704C69.1176 98.7593 67.879 100 66.3926 100Z" fill="#424953"/>
<path d="M66.3926 99.0074H2.72507C1.23867 99.0074 0 97.7667 0 96.2779V6.45157C0 4.96274 1.23867 3.72205 2.72507 3.72205H66.3926C67.879 3.72205 69.1176 4.96274 69.1176 6.45157V96.0297C69.1176 97.7667 67.879 99.0074 66.3926 99.0074Z" fill="#5B5F7E"/>
<path d="M61.4377 93.3003H7.67955C6.44088 93.3003 5.44995 92.3077 5.44995 90.8189V13.8958C5.44995 12.6551 6.44088 11.4144 7.67955 11.4144H61.19C62.4286 11.4144 63.4196 12.407 63.4196 13.8958V90.8189C63.6673 92.3077 62.6764 93.3003 61.4377 93.3003Z" fill="#CBCFD8"/>
<path d="M61.4377 92.3077H7.67955C6.44088 92.3077 5.44995 91.3151 5.44995 89.8263V12.9033C5.44995 11.6626 6.44088 10.4219 7.67955 10.4219H61.19C62.4286 10.4219 63.4196 11.4144 63.4196 12.9033V89.8263C63.6673 91.067 62.6764 92.3077 61.4377 92.3077Z" fill="#FDFDFD"/>
<path d="M47.8125 5.45906H46.3261C46.0783 2.23325 44.5919 0 42.6101 0H26.7551C25.021 0 23.2868 2.48139 23.0391 5.45906H21.5527C18.0844 5.45906 15.3594 8.68486 15.3594 12.9032H54.0058C54.0058 8.68486 51.033 5.45906 47.8125 5.45906ZM28.2415 1.98511H40.8759C42.3623 1.98511 43.601 3.47395 43.8487 5.45906H25.5164C25.5164 3.47395 26.7551 1.98511 28.2415 1.98511Z" fill="#EAEBF8"/>
<path d="M34.4351 1.98511H40.6284C42.1148 1.98511 43.3535 3.47395 43.6012 5.45906H34.4351V12.9032H53.7583C53.7583 8.68486 51.0332 5.45906 47.5649 5.45906H46.0785C45.8308 2.23325 44.3444 0 42.3625 0H34.4351V1.98511Z" fill="#BDBFDF"/>
<path d="M53.758 12.9033H15.1116V14.144H53.758V12.9033Z" fill="#5B5F7E"/>
<path d="M38.3987 17.6179C35.6737 17.6179 32.9486 18.3623 30.4712 19.3548L38.3987 36.7246H19.3232C19.3232 47.1464 27.7462 55.8313 38.3987 55.8313C49.0513 55.8313 57.4742 47.3945 57.4742 36.7246C57.4742 26.0546 49.0513 17.6179 38.3987 17.6179Z" fill="#3AB67D"/>
<path d="M27.4983 17.6179C21.0573 20.5955 16.3503 27.2953 16.3503 34.9876H35.4258L27.4983 17.6179Z" fill="#3AB67D"/>
<path d="M24.5256 54.0942H17.3413V61.2903H24.5256V54.0942Z" fill="#3AB67D"/>
<path d="M41.1239 59.5533H25.7644V61.2903H41.1239V59.5533Z" fill="#8A879D"/>
<path d="M52.5197 63.0273H15.6074V64.7643H52.5197V63.0273Z" fill="#8A879D"/>
<path d="M52.5193 66.2531H26.5073V67.9901H52.5193V66.2531Z" fill="#8A879D"/>
<path d="M52.5197 69.4789H15.6074V70.9678H52.5197V69.4789Z" fill="#8A879D"/>
<path d="M33.4442 72.7047H15.6074V74.4417H33.4442V72.7047Z" fill="#8A879D"/>
<path d="M52.5197 72.7047H35.6738V74.4417H52.5197V72.7047Z" fill="#8A879D"/>
<path d="M30.9669 75.9305H15.6074V77.6675H30.9669V75.9305Z" fill="#8A879D"/>
<path d="M52.5195 76.1786H32.4531V77.9156H52.5195V76.1786Z" fill="#8A879D"/>
<path d="M24.5258 79.1564H15.6074V80.8933H24.5258V79.1564Z" fill="#3AB67D"/>
<path d="M24.5258 66.2531H15.6074V67.9901H24.5258V66.2531Z" fill="#3AB67D"/>
<path d="M52.2718 82.3821H45.583V83.8709H52.2718V82.3821Z" fill="#8A879D"/>
<path d="M35.4257 79.1564H26.5073V80.8933H35.4257V79.1564Z" fill="#8A879D"/>
<path d="M52.272 79.1564H36.6648V80.8933H52.272V79.1564Z" fill="#8A879D"/>
<path d="M44.3445 82.3821H15.6074V83.8709H44.3445V82.3821Z" fill="#8A879D"/>
<path d="M30.9669 85.608H15.6074V87.3449H30.9669V85.608Z" fill="#8A879D"/>
<path d="M52.2718 85.608H32.4531V87.3449H52.2718V85.608Z" fill="#8A879D"/>
<path d="M52.5194 59.5533H42.6101V61.2903H52.5194V59.5533Z" fill="#8A879D"/>
<path d="M15.716 58.0322H12.2477C12 58.0322 12 57.7841 12 57.7841V29.2481C12 29 12.2477 29 12.2477 29H15.716C15.9637 29 15.9637 29.2481 15.9637 29.2481C15.9637 29.4963 15.716 29.4963 15.716 29.4963H12.7432V57.2878H15.716C15.9637 57.2878 15.9637 57.536 15.9637 57.536C15.9637 57.7841 15.716 58.0322 15.716 58.0322Z" fill="#3AB67D"/>
</svg>
