<svg width="96" height="100" viewBox="0 0 96 100" fill="none" xmlns="http://www.w3.org/2000/svg">
<path d="M93.8325 37.4233L12.7954 62.5767C12.1861 62.5767 11.5767 62.5767 10.9674 61.9632L0 26.9939C0 26.3804 4.63045e-06 25.7669 1.21861 25.1534L82.2558 0C82.8651 0 83.4743 -9.37036e-06 84.0836 0.613487L95.0511 35.5828C94.4418 36.8098 94.4418 37.4233 93.8325 37.4233Z" fill="#3AB67D"/>
<path d="M88.3487 29.4479L82.2557 9.81598C79.2092 10.4295 76.1627 9.20249 75.5534 6.13501L9.74884 26.3804C10.3581 29.4479 9.13953 32.5154 6.09302 33.1289L12.186 52.7608C15.2325 52.1473 18.2791 53.3743 18.8884 56.4418L84.6929 36.1964C83.4743 33.1289 85.3022 30.0614 88.3487 29.4479Z" fill="#F0F1F5"/>
<path d="M59.1025 27.6074C60.9304 34.3559 57.2745 41.1043 50.5722 43.5583C43.8699 45.3988 37.1676 41.7178 34.7304 34.9694C32.9025 28.2209 36.5583 21.4724 43.2606 19.0184C49.963 17.1779 57.2746 20.8589 59.1025 27.6074Z" fill="#BBC2DF"/>
<path d="M75.5537 22.6995C76.163 25.1535 74.9444 28.221 71.8979 29.448C69.4606 30.0615 66.4141 28.8345 65.1955 25.767C64.5862 23.313 65.8048 20.2455 68.8513 19.0185C71.8979 18.405 74.9444 19.632 75.5537 22.6995Z" fill="#BBC2DF"/>
<path d="M28.0278 37.4233C28.6371 39.8773 27.4185 42.9448 24.372 44.1718C21.9348 44.7853 18.8883 43.5583 17.6697 40.4908C17.0604 38.0368 18.279 34.9694 21.3255 33.7424C24.372 33.1289 27.4185 34.3559 28.0278 37.4233Z" fill="#BBC2DF"/>
<path d="M43.2605 23.3129L42.6512 22.0859L45.6977 21.4724L46.307 22.6994C48.7442 22.0859 50.5721 23.3129 51.1814 25.7669V26.3804L48.1349 27.6074V26.9939C47.5256 25.7669 46.9163 25.1534 45.6977 25.7669C44.4791 26.3804 43.8698 26.9939 44.4791 28.2209C45.0884 29.4479 45.6977 30.0614 48.7442 30.6749C51.7907 31.9019 53.6186 32.5154 54.228 34.9694C54.8373 37.4233 54.2279 39.2638 51.7907 40.4908L52.4 41.7178L49.3535 42.3313L48.7442 41.1043C46.307 41.7178 44.4791 40.4908 43.8698 38.0368L43.2605 36.8098L46.307 35.5828L46.9163 36.8098C47.5256 38.0368 48.1349 38.0368 49.3535 38.0368C50.5721 37.4233 51.1814 36.8098 50.5721 35.5828C49.9628 34.3558 49.3535 33.7424 46.307 33.1289C43.2605 32.5154 41.4326 31.2884 40.8233 28.8344C40.214 26.3804 40.8233 24.5399 43.2605 23.3129Z" fill="#3AB67D"/>
<path d="M90.1767 69.3251L5.48377 73.0061C4.87446 73.0061 4.26516 72.3926 4.26516 71.7791L2.43726 34.9693C2.43726 34.3558 3.04656 33.7423 3.65586 33.7423L88.3488 30.0613C88.9581 30.0613 89.5674 30.6748 89.5674 31.2883L91.3953 68.0981C92.0046 68.7116 91.3953 69.3251 90.1767 69.3251Z" fill="#3AB67D"/>
<path d="M87.1303 60.1227L86.521 39.8773C83.4745 39.8773 81.0373 37.4233 81.0373 34.9693L12.1862 38.0368C12.1862 41.1043 9.74897 43.5582 7.31177 43.5582L7.92106 63.8036C10.9676 63.8036 13.4048 66.2576 13.4048 68.7116L82.2559 65.6441C82.2559 62.5766 84.0838 60.1227 87.1303 60.1227Z" fill="#F0F1F5"/>
<path d="M59.7119 50.9202C59.7119 57.6687 54.8374 63.8037 47.5258 63.8037C40.8235 63.8037 34.7305 58.8957 34.7305 51.5337C34.7305 44.7853 39.6049 38.6503 46.9165 38.6503C53.6188 38.6503 59.1026 44.1717 59.7119 50.9202Z" fill="#BBC2DF"/>
<path d="M76.7719 50.3067C76.7719 53.3742 74.944 55.8281 71.8975 55.8281C68.851 55.8281 66.4138 53.9876 66.4138 50.9202C66.4138 47.8527 68.2417 45.3987 71.2882 45.3987C74.3347 44.7852 76.7719 47.2392 76.7719 50.3067Z" fill="#BBC2DF"/>
<path d="M27.4187 52.1472C27.4187 55.2147 25.5908 57.6687 22.5443 57.6687C19.4978 57.6687 17.0605 55.8282 17.0605 52.7607C17.0605 49.6932 18.8885 47.2392 21.935 47.2392C24.9815 47.2392 27.4187 49.6932 27.4187 52.1472Z" fill="#BBC2DF"/>
<path d="M45.0884 42.3312V41.1042H48.135V42.3312C50.5722 42.9447 51.7908 44.1717 52.4001 46.6257V47.2392H49.3536V46.6257C49.3536 45.3987 48.7442 44.7852 47.5256 44.7852C46.307 44.7852 45.6977 45.3987 45.6977 46.6257C45.6977 47.8527 46.307 49.0797 48.7442 50.3067C51.7908 52.1472 53.0094 53.3742 53.0094 55.8282C53.0094 58.2822 51.7908 60.1227 49.3536 60.7362V61.9631H46.3071V60.7362C43.8698 60.1227 42.6512 58.8957 42.0419 56.4417V55.2147H45.0884V56.4417C45.0884 57.6687 45.6977 58.2822 46.9163 58.2822C48.135 58.2822 48.7442 57.6687 48.7442 56.4417C48.7442 55.2147 48.1349 53.9877 45.6977 52.7607C42.6512 50.9202 41.4326 49.6932 41.4326 47.2392C41.4326 44.7852 42.6512 42.9447 45.0884 42.3312Z" fill="#3AB67D"/>
<path d="M84.0836 100L1.21861 80.9816C0.609306 80.9816 0 80.3681 0 79.1411L7.92092 43.5583C7.92092 42.9448 9.13954 42.3313 9.74884 42.3313L93.2232 61.3497C93.8325 61.3497 94.4418 61.9632 94.4418 63.1902L86.5209 98.773C85.9116 99.3865 84.6929 100 84.0836 100Z" fill="#3AB67D"/>
<path d="M83.4745 90.1841L87.7396 70.5522C84.6931 69.9387 82.8652 66.8712 83.4745 63.8037L16.4513 48.4663C15.842 51.5338 12.7955 53.3743 9.749 52.7608L5.48389 72.3927C8.5304 73.0062 10.3583 76.0737 9.749 79.1411L76.7722 94.4786C77.9908 91.4111 81.0373 89.5706 83.4745 90.1841Z" fill="#F0F1F5"/>
<path d="M59.1025 74.2331C57.2746 80.9815 50.5723 85.276 43.87 83.4355C37.1676 81.595 32.9025 74.8466 34.7304 68.0981C36.5583 61.3496 43.2607 57.0552 49.963 58.8957C56.6653 60.7361 60.9304 67.4846 59.1025 74.2331Z" fill="#BBC2DF"/>
<path d="M76.1626 77.9141C75.5533 80.9816 72.5068 82.2086 70.0696 81.5951C67.0231 80.9816 65.8045 77.9141 66.4138 75.4601C67.0231 72.3927 70.0696 71.1657 72.5068 71.7792C74.944 72.3927 76.7719 74.8467 76.1626 77.9141Z" fill="#BBC2DF"/>
<path d="M28.0276 66.8712C27.4183 69.9387 24.3718 71.1657 21.9346 70.5522C18.8881 69.9387 17.6695 66.8712 18.2788 64.4172C18.8881 61.3497 21.9346 60.1228 24.3718 60.7363C26.809 61.3498 28.637 63.8037 28.0276 66.8712Z" fill="#BBC2DF"/>
<path d="M47.5256 61.9632V60.7362L50.5721 61.3497V62.5767C53.0093 63.8037 53.6186 65.6442 53.0093 67.4847V68.0982L49.9628 67.4847V66.8712C49.9628 65.6442 49.9628 65.0307 48.7442 64.4172C47.5256 64.4172 46.9163 64.4172 46.9163 65.6442C46.9163 66.8712 46.9163 68.0982 48.7442 69.9387C51.1814 72.3926 51.7907 74.2331 51.1814 76.0736C50.5721 78.5276 48.7442 79.7546 46.307 79.7546V80.9816L43.2605 80.3681V79.1411C40.8233 77.9141 40.214 76.0736 40.8233 73.6196V72.3926L43.8698 73.0061L43.2605 74.2331C43.2605 75.4601 43.2605 76.0736 44.4791 76.0736C45.6977 76.0736 46.307 76.0736 46.9163 74.8466C46.9163 73.6196 46.9163 72.3926 45.0884 70.5521C42.6512 68.0982 42.0419 66.2577 42.6512 64.4172C43.8698 63.1902 45.0884 61.9632 47.5256 61.9632Z" fill="#3AB67D"/>
</svg>
