<svg width="101" height="100" viewBox="0 0 101 100" fill="none" xmlns="http://www.w3.org/2000/svg">
<path d="M100.015 50C100.015 77.6923 77.7036 100 50.0073 100C22.3109 100 0 77.6923 0 50C0 22.3077 22.3109 0 50.0073 0C77.7036 0 100.015 22.3077 100.015 50Z" fill="#3AB67D"/>
<path d="M91.5524 49.9999C91.5524 73.0769 73.0882 91.5384 50.0079 91.5384C26.9276 91.5384 8.46338 73.0769 8.46338 49.9999C8.46338 26.923 26.9276 8.46149 50.0079 8.46149C73.0882 8.46149 91.5524 26.923 91.5524 49.9999Z" fill="#EAEBF8"/>
<path d="M90.7826 50.7692C90.7826 73.0769 73.0878 90.7692 50.7768 90.7692C28.4659 90.7692 10.771 73.0769 10.771 50.7692C10.771 28.4615 28.4659 10.7692 50.7768 10.7692C73.0878 10.7692 90.7826 29.2308 90.7826 50.7692Z" fill="#FDFDFD"/>
<path d="M53.0848 50C53.0848 52.3077 51.5461 53.8461 49.2381 53.8461C46.93 53.8461 45.3914 52.3077 45.3914 50C45.3914 47.6923 46.93 46.1538 49.2381 46.1538C51.5461 46.1538 53.0848 47.6923 53.0848 50Z" fill="#524C6F"/>
<path d="M50.7767 49.2308H50.0074C49.238 49.2308 49.238 48.4615 49.238 48.4615L53.0847 39.2308H53.8541C54.6234 39.2308 54.6234 40 54.6234 40L50.7767 49.2308Z" fill="#524C6F"/>
<path d="M49.2384 50C48.469 49.2308 48.469 49.2308 49.2384 48.4615C49.2384 48.4615 50.0077 48.4615 50.7771 48.4615L68.472 66.1539C69.2413 66.9231 69.2413 66.9231 68.472 67.6923C68.472 67.6923 67.7026 67.6923 66.9333 67.6923L49.2384 50Z" fill="#524C6F"/>
<path d="M47.6993 49.2308C48.4687 49.2308 48.4687 49.2308 48.4687 49.2308C49.238 50 48.4687 50 47.6993 49.2308H23.0804C22.311 49.2308 22.311 49.2308 22.311 49.2308H23.0804H47.6993Z" fill="#524C6F"/>
<path d="M50.7767 10.7692H49.238V17.6923H50.7767V10.7692Z" fill="#524C6F"/>
<path d="M89.2444 49.2308H82.3203V50.7692H89.2444V49.2308Z" fill="#524C6F"/>
<path d="M50.7767 82.3078H49.238V89.2309H50.7767V82.3078Z" fill="#524C6F"/>
<path d="M17.6951 49.2308H10.771V50.7692H17.6951V49.2308Z" fill="#524C6F"/>
<path d="M73.0877 27.6924L72.3184 26.1539L76.9344 21.5385L78.4731 23.077L73.0877 27.6924Z" fill="#524C6F"/>
<path d="M72.3184 73.8462L73.0877 72.3077L78.4731 76.9231L76.9344 78.4616L72.3184 73.8462Z" fill="#524C6F"/>
<path d="M26.3161 72.505L21.4443 77.4246L22.5377 78.507L27.4095 73.5875L26.3161 72.505Z" fill="#524C6F"/>
<path d="M23.0114 21.7611L21.9231 22.8486L26.8177 27.7453L27.906 26.6578L23.0114 21.7611Z" fill="#524C6F"/>
</svg>
