<svg width="83" height="100" viewBox="0 0 83 100" fill="none" xmlns="http://www.w3.org/2000/svg">
<path d="M82.3104 62.5698H0.559814V100H82.3104V62.5698Z" fill="#B5B9CB"/>
<path d="M82.3104 61.4525H0.559814V98.8827H82.3104V61.4525Z" fill="#F0F1F5"/>
<path d="M82.3104 60.3352H0.559814V97.7654H82.3104V60.3352Z" fill="#B5B9CB"/>
<path d="M82.3104 59.2179H0.559814V96.6481H82.3104V59.2179Z" fill="#F0F1F5"/>
<path d="M82.3104 57.5419H0.559814V94.9721H82.3104V57.5419Z" fill="#B5B9CB"/>
<path d="M82.3104 36.3129H0.559814V94.4135H82.3104V36.3129Z" fill="#F0F1F5"/>
<path d="M66.0721 79.3296H82.3103L62.1526 94.4134L66.0721 79.3296Z" fill="#B5B9CB"/>
<path d="M0 36.3128V14.5251C0 12.8491 1.11988 11.7318 3.35962 11.7318H79.5108C81.1906 11.7318 82.8704 12.8491 82.8704 14.5251V36.3128H0Z" fill="#3AB67D"/>
<path d="M82.3104 36.3129H0.559814V37.9888H82.3104V36.3129Z" fill="#B5B9CB"/>
<path d="M18.4778 15.0838C20.7175 17.3185 20.7175 20.1118 18.4778 22.3464C16.238 24.581 13.4383 24.581 11.1986 22.3464C8.95886 20.1118 8.95886 17.3185 11.1986 15.0838C13.4383 13.4078 16.238 13.4078 18.4778 15.0838Z" fill="#9584E9"/>
<path d="M35.8361 15.0838C38.0759 17.3185 38.0759 20.1118 35.8361 22.3464C33.5964 24.581 30.7967 24.581 28.557 22.3464C26.3173 20.1118 26.3173 17.3185 28.557 15.0838C30.7967 13.4078 34.1563 13.4078 35.8361 15.0838Z" fill="#9584E9"/>
<path d="M53.7539 15.0838C55.9936 17.3185 55.9936 20.1118 53.7539 22.3464C51.5142 24.581 48.7145 24.581 46.4747 22.3464C44.235 20.1118 44.235 17.3185 46.4747 15.0838C48.1545 13.4078 51.5142 13.4078 53.7539 15.0838Z" fill="#9584E9"/>
<path d="M71.1116 15.0838C73.3513 17.3185 73.3513 20.1118 71.1116 22.3464C68.8718 24.581 66.0721 24.581 63.8324 22.3464C61.5927 20.1118 61.5927 17.3185 63.8324 15.0838C66.0721 13.4078 69.4318 13.4078 71.1116 15.0838Z" fill="#9584E9"/>
<path d="M26.3168 50.2793L27.4366 41.3408H30.2363V54.1899H28.5565V45.2514L27.4366 54.1899H25.7568L24.077 45.2514V54.1899H22.3972V41.3408H25.1969L26.3168 50.2793Z" fill="#524C6F"/>
<path d="M38.6351 54.1899H36.3954L35.8354 51.9553H33.5957L33.0358 54.1899H31.356L33.5957 41.3408H36.3954L38.6351 54.1899ZM34.1556 49.7207H35.8354L34.7156 43.5754L34.1556 49.7207Z" fill="#524C6F"/>
<path d="M43.6746 54.1899C43.6746 53.6313 43.6746 53.6313 43.6746 52.5139V50.2793C43.6746 49.162 43.1147 48.6033 42.5548 48.6033H41.9949V53.6313H39.7551V40.7821H42.5548C44.7945 40.7821 45.3545 41.8994 45.3545 43.5754V44.6927C45.3545 45.81 44.7945 46.9274 44.2346 47.486C45.3545 48.0447 45.3545 48.6033 45.3545 50.2793V52.5139C45.3545 53.0726 45.3545 53.6313 45.3545 54.1899H43.6746ZM41.4349 43.0167V46.9274H41.9949C42.5548 46.9274 43.1147 46.3687 43.1147 45.81V44.6927C43.1147 43.5754 42.5548 43.5754 41.9949 43.5754H41.4349V43.0167Z" fill="#524C6F"/>
<path d="M52.6338 49.162V50.838C52.6338 53.0726 51.5139 54.1899 49.8341 54.1899C48.1543 54.1899 47.0344 53.0726 47.0344 50.838V44.1341C47.0344 41.8994 48.1543 40.7821 49.8341 40.7821C51.5139 40.7821 52.6338 41.8994 52.6338 44.1341V45.2514H50.954V44.1341C50.954 43.0167 50.394 43.0167 49.8341 43.0167C49.2742 43.0167 48.7142 43.5754 48.7142 44.1341V50.838C48.7142 51.9553 49.2742 51.9553 49.8341 51.9553C50.394 51.9553 50.954 51.3966 50.954 50.838V49.162H52.6338Z" fill="#524C6F"/>
<path d="M55.9931 54.1899H53.7534V41.3408H55.9931V46.9274H58.2329V41.3408H60.4726V54.1899H58.2329V48.6033H55.9931V54.1899Z" fill="#524C6F"/>
<path d="M32.476 61.4525C30.7962 61.4525 30.2363 62.0111 30.2363 64.2458V67.5977H25.7568V64.8044C25.7568 59.7765 27.9966 56.9832 33.036 56.9832C37.5155 56.9832 40.3151 59.7765 40.3151 64.8044C40.3151 68.7151 38.6353 72.067 34.1559 77.095C31.3562 79.8882 30.7962 81.5642 30.7962 83.2402V83.7989H39.7552V88.2681H25.7568V84.3575C25.7568 81.0056 26.8767 78.2123 30.7962 74.8603C34.7158 70.9497 35.2757 68.7151 35.2757 65.3631C35.2757 62.0112 34.1558 61.4525 32.476 61.4525Z" fill="#8A879D"/>
<path d="M57.1132 57.5419V62.0112L49.8341 88.2681H44.7947L52.0738 62.0112H42.5549V57.5419H57.1132Z" fill="#8A879D"/>
<path d="M17.918 18.9944C17.918 20.6704 16.2382 22.3464 14.5584 22.3464C12.8785 22.3464 11.1987 20.6704 11.1987 18.9944V3.35196C11.1987 1.67598 12.8785 0 14.5584 0C16.2382 0 17.918 1.67598 17.918 3.35196V18.9944Z" fill="#BDBFDF"/>
<path d="M35.8357 18.9944C35.8357 20.6704 34.1558 22.3464 32.476 22.3464C30.7962 22.3464 29.1165 20.6704 29.1165 18.9944V3.35196C29.1165 1.67598 30.7962 0 32.476 0C34.1558 0 35.8357 1.67598 35.8357 3.35196V18.9944Z" fill="#BDBFDF"/>
<path d="M53.1943 18.9944C53.1943 20.6704 51.5145 22.3464 49.8347 22.3464C48.1549 22.3464 46.4751 20.6704 46.4751 18.9944V3.35196C46.4751 1.67598 48.1549 0 49.8347 0C51.5145 0 53.1943 1.67598 53.1943 3.35196V18.9944Z" fill="#BDBFDF"/>
<path d="M70.552 18.9944C70.552 20.6704 68.8722 22.3464 67.1924 22.3464C65.5126 22.3464 63.8328 20.6704 63.8328 18.9944V3.35196C63.8328 1.67598 65.5126 0 67.1924 0C68.8722 0 70.552 1.67598 70.552 3.35196V18.9944Z" fill="#BDBFDF"/>
</svg>
